<?xml version="1.0" encoding="UTF-8" standalone="no"?>
<!-- Created with Inkscape (http://www.inkscape.org/) -->

<svg
   xmlns:dc="http://purl.org/dc/elements/1.1/"
   xmlns:cc="http://creativecommons.org/ns#"
   xmlns:rdf="http://www.w3.org/1999/02/22-rdf-syntax-ns#"
   xmlns:svg="http://www.w3.org/2000/svg"
   xmlns="http://www.w3.org/2000/svg"
   xmlns:sodipodi="http://sodipodi.sourceforge.net/DTD/sodipodi-0.dtd"
   xmlns:inkscape="http://www.inkscape.org/namespaces/inkscape"
   width="744.09448"
   height="1052.3622"
   id="svg2"
   version="1.1"
   inkscape:version="0.48.3.1 r9886"
   sodipodi:docname="picaros.svg">
  <defs
     id="defs4" />
  <sodipodi:namedview
     id="base"
     pagecolor="#ffffff"
     bordercolor="#666666"
     borderopacity="1.0"
     inkscape:pageopacity="0.0"
     inkscape:pageshadow="2"
     inkscape:zoom="0.24748737"
     inkscape:cx="372.6188"
     inkscape:cy="608.60643"
     inkscape:document-units="px"
     inkscape:current-layer="layer1"
     showgrid="false"
     inkscape:window-width="1280"
     inkscape:window-height="737"
     inkscape:window-x="0"
     inkscape:window-y="0"
     inkscape:window-maximized="1" />
  <metadata
     id="metadata7">
    <rdf:RDF>
      <cc:Work
         rdf:about="">
        <dc:format>image/svg+xml</dc:format>
        <dc:type
           rdf:resource="http://purl.org/dc/dcmitype/StillImage" />
        <dc:title></dc:title>
      </cc:Work>
    </rdf:RDF>
  </metadata>
  <g
     inkscape:label="Layer 1"
     inkscape:groupmode="layer"
     id="layer1">
    <g
       id="g3944"
       transform="translate(0,37.484018)">
      <g
         id="g3935">
        <g
           id="g3811"
           transform="translate(5.8669312,0)">
          <path
             sodipodi:end="6.2823085"
             sodipodi:start="0"
             transform="matrix(1,0,0,0.80263157,-202.03051,54.151076)"
             d="m 662.66006,340.03348 c 0,84.79956 -68.74362,153.54318 -153.54318,153.54318 -84.79956,0 -153.54318,-68.74362 -153.54318,-153.54318 0,-84.79956 68.74362,-153.54318 153.54318,-153.54318 84.74699,0 153.46882,68.6616 153.54313,153.40855 l -153.54313,0.13463 z"
             sodipodi:ry="153.54318"
             sodipodi:rx="153.54318"
             sodipodi:cy="340.03348"
             sodipodi:cx="509.11688"
             id="path2985"
             style="fill:#ff9852;fill-opacity:1;stroke:none"
             sodipodi:type="arc" />
          <path
             inkscape:connector-curvature="0"
             id="path3755"
             d="m 177.78687,248.28076 -8.08122,-62.62946 80.8122,-86.873114 200.01021,22.223354 -6.06092,115.15739 179.80716,-2.0203 -14.14214,60.60915 z"
             style="fill:#2c85be;fill-opacity:1;stroke:none" />
          <path
             sodipodi:open="true"
             sodipodi:end="5.8778476"
             sodipodi:start="0"
             transform="translate(-201.02035,-18.174017)"
             d="m 478.8123,386.00204 c 0,15.3457 -7.68843,27.78584 -17.17259,27.78584 -9.48416,0 -17.17259,-12.44014 -17.17259,-27.78584 0,-15.34569 7.68843,-27.78583 17.17259,-27.78583 6.86674,0 13.07333,6.61876 15.78109,16.82907"
             sodipodi:ry="27.785839"
             sodipodi:rx="17.172594"
             sodipodi:cy="386.00204"
             sodipodi:cx="461.63971"
             id="path3757"
             style="fill:#323232;fill-opacity:1;stroke:none"
             sodipodi:type="arc" />
          <path
             sodipodi:open="true"
             sodipodi:end="5.8778476"
             sodipodi:start="0"
             d="m 478.8123,386.00204 c 0,15.3457 -7.68843,27.78584 -17.17259,27.78584 -9.48416,0 -17.17259,-12.44014 -17.17259,-27.78584 0,-15.34569 7.68843,-27.78583 17.17259,-27.78583 6.86674,0 13.07333,6.61876 15.78109,16.82907"
             sodipodi:ry="27.785839"
             sodipodi:rx="17.172594"
             sodipodi:cy="386.00204"
             sodipodi:cx="461.63971"
             id="path3757-4"
             style="fill:#323232;fill-opacity:1;stroke:none"
             sodipodi:type="arc"
             transform="translate(-108.08632,-20.706027)" />
          <path
             sodipodi:nodetypes="cc"
             inkscape:connector-curvature="0"
             id="path3788"
             d="m 310.11684,440.20975 c 65.32319,6.06092 159.94081,-53.53808 122.22845,-140.4112"
             style="fill:none;stroke:#323232;stroke-width:4;stroke-linecap:round;stroke-linejoin:round;stroke-miterlimit:4;stroke-opacity:1;stroke-dasharray:none" />
          <path
             sodipodi:nodetypes="cccccccc"
             inkscape:connector-curvature="0"
             id="path3790"
             d="m 184.85792,248.78584 -76.7716,70.2056 78.79191,-27.27411 -27.27412,83.84266 53.53808,-65.65992 0,71.72083 28.28427,-127.27922 z"
             style="fill:#e43a16;fill-opacity:1;stroke:none" />
        </g>
      </g>
      <g
         transform="translate(1.2109375e-6,0)"
         id="g3923">
        <path
           sodipodi:type="arc"
           style="fill:#ff9852;fill-opacity:1;stroke:none"
           id="path2985-5"
           sodipodi:cx="509.11688"
           sodipodi:cy="340.03348"
           sodipodi:rx="153.54318"
           sodipodi:ry="153.54318"
           d="m 662.66006,340.03348 c 0,84.79956 -68.74362,153.54318 -153.54318,153.54318 -84.79956,0 -153.54318,-68.74362 -153.54318,-153.54318 0,-84.79956 68.74362,-153.54318 153.54318,-153.54318 84.74699,0 153.46882,68.6616 153.54313,153.40855 l -153.54313,0.13463 z"
           transform="matrix(1,0,0,0.80263157,-196.16358,482.45575)"
           sodipodi:start="0"
           sodipodi:end="6.2823085" />
        <path
           sodipodi:type="arc"
           style="fill:#ffffff;fill-opacity:0.07582942;stroke:none"
           id="path2985-5-2"
           sodipodi:cx="509.11688"
           sodipodi:cy="340.03348"
           sodipodi:rx="153.54318"
           sodipodi:ry="153.54318"
           d="m 662.66006,340.03348 c 0,84.79956 -68.74362,153.54318 -153.54318,153.54318 -84.79956,0 -153.54318,-68.74362 -153.54318,-153.54318 0,-84.79956 68.74362,-153.54318 153.54318,-153.54318 84.74699,0 153.46882,68.6616 153.54313,153.40855 l -153.54313,0.13463 z"
           transform="matrix(0.82236842,0,0,0.66005885,-107.55466,528.58264)"
           sodipodi:start="0"
           sodipodi:end="6.2823085" />
        <path
           style="fill:#2c85be;fill-opacity:1;stroke:none"
           d="m 183.6538,676.58543 -8.08122,-62.62946 80.8122,-86.87311 200.01021,22.22335 -6.06092,115.15739 179.80716,-2.0203 -14.14214,60.60915 z"
           id="path3755-9"
           inkscape:connector-curvature="0" />
        <path
           sodipodi:type="arc"
           style="fill:#323232;fill-opacity:1;stroke:none"
           id="path3757-0"
           sodipodi:cx="461.63971"
           sodipodi:cy="386.00204"
           sodipodi:rx="17.172594"
           sodipodi:ry="27.785839"
           d="m 478.8123,386.00204 c 0,15.3457 -7.68843,27.78584 -17.17259,27.78584 -9.48416,0 -17.17259,-12.44014 -17.17259,-27.78584 0,-15.34569 7.68843,-27.78583 17.17259,-27.78583 6.86674,0 13.07333,6.61876 15.78109,16.82907"
           transform="translate(-195.15342,410.13065)"
           sodipodi:start="0"
           sodipodi:end="5.8778476"
           sodipodi:open="true" />
        <path
           transform="translate(-102.21939,407.59864)"
           sodipodi:type="arc"
           style="fill:#323232;fill-opacity:1;stroke:none"
           id="path3757-4-0"
           sodipodi:cx="461.63971"
           sodipodi:cy="386.00204"
           sodipodi:rx="17.172594"
           sodipodi:ry="27.785839"
           d="m 478.8123,386.00204 c 0,15.3457 -7.68843,27.78584 -17.17259,27.78584 -9.48416,0 -17.17259,-12.44014 -17.17259,-27.78584 0,-15.34569 7.68843,-27.78583 17.17259,-27.78583 6.86674,0 13.07333,6.61876 15.78109,16.82907"
           sodipodi:start="0"
           sodipodi:end="5.8778476"
           sodipodi:open="true" />
        <path
           style="fill:none;stroke:#323232;stroke-width:4;stroke-linecap:round;stroke-linejoin:round;stroke-miterlimit:4;stroke-opacity:1;stroke-dasharray:none"
           d="m 315.98377,868.51442 c 65.32319,6.06092 159.94081,-53.53808 122.22845,-140.4112"
           id="path3788-1"
           inkscape:connector-curvature="0"
           sodipodi:nodetypes="cc" />
        <path
           style="fill:#e43a16;fill-opacity:1;stroke:none"
           d="m 190.72485,677.09051 -76.7716,70.2056 78.79191,-27.27411 -27.27412,83.84266 53.53808,-65.65992 0,71.72083 28.28427,-127.27922 z"
           id="path3790-1"
           inkscape:connector-curvature="0"
           sodipodi:nodetypes="cccccccc" />
        <path
           style="fill:#ffffff;fill-opacity:0.20379148;stroke:none"
           d="m 604.73475,709.03287 11.4583,-36.48804 -187.88837,4.04061 10.10152,-84.46413 -18.42424,-29.56056 -151.28138,-15.27484 -68.69038,68.69037 7.07107,48.48733 z"
           id="path3855"
           inkscape:connector-curvature="0"
           sodipodi:nodetypes="ccccccccc" />
        <path
           style="fill:#ffffff;fill-opacity:0.34123224;stroke:none"
           d="m 270.71429,553.79076 -21.42857,21.42857 19.28571,18.57143 40.71429,-11.42857 7.14285,-23.57143 z"
           id="path3857"
           inkscape:connector-curvature="0"
           sodipodi:nodetypes="cccccc" />
        <path
           style="fill:#ffffff;fill-opacity:0.13744076;stroke:none"
           d="m 165.54863,718.87877 36.0127,-36.10987 38.58449,4.90283 -12.52974,56.03192 -2.35206,-28.73241 -28.91626,36.68058 12.75382,-48.80242 z"
           id="path3859"
           inkscape:connector-curvature="0"
           sodipodi:nodetypes="cccccccc" />
      </g>
    </g>
  </g>
</svg>
